<svg xmlns="http://www.w3.org/2000/svg" viewBox="0 0 398.07 73.3"><defs><style>.cls-1{fill:#fff;}</style></defs><g id="Layer_2" data-name="Layer 2"><g id="Logotype_Grey" data-name="Logotype Grey"><path class="cls-1" d="M34.79,62.77c14.66,0,21.89-11.15,21.89-26.22s-7.23-26-21.89-26-21.68,10.94-21.68,26,7,26.22,21.68,26.22M34.79,0c21.79,0,35,15.07,35,36.55S56.58,73.3,34.79,73.3,0,58,0,36.55,13.11,0,34.79,0"/><path class="cls-1" d="M105,73.3c-19.31,0-30-9-30-29.21V1h12.6v42c0,13.63,4.75,19.72,17.35,19.72s17.44-6.09,17.44-19.72V1h12.6V44.09c0,20-11,29.21-29.94,29.21"/><path class="cls-1" d="M153,33.45h18.58c8.88,0,14.56-2.68,14.56-11.25,0-7.85-5.16-10.33-12.8-10.33H153Zm0,10.84v28h-12.6V1h34.28c14.66,0,24.57,5.78,24.57,20.44,0,9.3-6.3,15.49-15.18,17.76,8.06,1,11.77,4.86,12.81,13.12,1,7.33.61,13.62,2.89,19.92H186.66c-1.75-6-1-12.29-2.06-18.69-1.14-8.57-6.92-9.29-15.28-9.29Z"/><path class="cls-1" d="M216.71,33.45h18.58c8.88,0,14.56-2.68,14.56-11.25,0-7.85-5.16-10.33-12.8-10.33H216.71Zm0,10.84v28h-12.6V1h34.28C253.05,1,263,6.81,263,21.47c0,9.3-6.3,15.49-15.18,17.76,8.06,1,11.77,4.86,12.81,13.12,1,7.33.62,13.62,2.89,19.92H250.37c-1.76-6-1-12.29-2.07-18.69-1.14-8.57-6.92-9.29-15.28-9.29Z"/><path class="cls-1" d="M300.13,62.77c14.66,0,21.89-11.15,21.89-26.22s-7.23-26-21.89-26-21.68,10.94-21.68,26,7,26.22,21.68,26.22m0-62.77c21.78,0,35,15.07,35,36.55s-13.22,36.75-35,36.75S265.33,58,265.33,36.55,278.45,0,300.13,0"/><path class="cls-1" d="M371.62,42.31c-1.8-.58-3.76-1.12-5.83-1.7-6.42-1.78-15.21-4.21-14.82-7.48.28-2.33,2.7-3.91,6.68-4.58,2.21.91,4.56,1.71,6.92,2.46,1.8.58,3.76,1.12,5.82,1.7,6.42,1.78,15.21,4.22,14.83,7.48-.28,2.33-2.7,3.91-6.68,4.58-2.21-.91-4.56-1.71-6.92-2.46M398.07,22.6,395,21.36,393.51,20c.43-.62.73-2.13-1.15-5.69-.57-1.09-1.06-2.1-1.51-3-.13-2.41-.86-3-1.73-3.14A5,5,0,0,0,385,5.56C381.67,3,377.16,1.34,371.56.68a47.06,47.06,0,0,0-12.87.23c-4.53.77-8.2,2.31-10.61,4.45a10.08,10.08,0,0,0-3.53,7.79,13.3,13.3,0,0,0,2.54,8.1,13.44,13.44,0,0,0-8.06,11c-.65,5.55,1.78,9.88,7.45,13.23,4.75,2.82,11.25,4.64,17.54,6.4l1.13.32c6.18,1.76,14.65,4.17,14.65,7.51A2,2,0,0,1,379,61.2c-2.35,2.07-8.51,2.68-13.11,2.08a14.47,14.47,0,0,1-7.6-2.9,5,5,0,0,0-2.57-3.93c-.17-1-.71-1.76-3.31-1.67-.95-.42-2-.87-3.12-1.41-4.84-2.31-5.89-.9-6.08-.5l-1.57-1.52-1.37-3-.12,0,1,3.11-3-.86,0,.12,3.1,1.24,1.46,1.4c-.43.62-.73,2.13,1.15,5.69.57,1.09,1.06,2.1,1.51,3,.12,2.41.85,3,1.73,3.14a5,5,0,0,0,4.11,2.55c3.33,2.58,7.85,4.22,13.45,4.88a50.21,50.21,0,0,0,5.74.33,43.67,43.67,0,0,0,7.13-.56c4.53-.77,8.2-2.31,10.6-4.45a10.05,10.05,0,0,0,3.54-7.79,13.3,13.3,0,0,0-2.54-8.1,13.41,13.41,0,0,0,8-11c.66-5.55-1.77-9.88-7.44-13.23-4.75-2.82-11.26-4.64-17.55-6.4L371,21.17c-6.18-1.76-14.66-4.17-14.66-7.5a2,2,0,0,1,.81-1.55c2.36-2.07,8.52-2.68,13.11-2.08a14.4,14.4,0,0,1,7.6,2.9,5,5,0,0,0,2.58,3.93c.17,1,.71,1.76,3.31,1.67.95.42,2,.87,3.12,1.41,4.84,2.31,5.89.9,6.08.5L394.56,22l1.37,3,.11,0-1-3.1,3,.85Z"/></g></g></svg>