<svg xmlns="http://www.w3.org/2000/svg" viewBox="0 0 59.95 72.62"><defs><style>.cls-1{fill:#fff;}</style></defs><g id="Layer_2" data-name="Layer 2"><g id="Logomark_Black" data-name="Logomark Black"><path class="cls-1" d="M33.5,42c-1.8-.58-3.76-1.12-5.83-1.7C21.26,38.48,12.46,36,12.85,32.78c.28-2.33,2.7-3.91,6.68-4.58,2.21.91,4.56,1.71,6.92,2.46,1.8.58,3.76,1.12,5.82,1.7,6.42,1.78,15.21,4.21,14.83,7.48-.28,2.33-2.7,3.91-6.68,4.58-2.21-.91-4.56-1.71-6.92-2.46M60,22.25,56.85,21l-1.46-1.4c.43-.62.73-2.13-1.15-5.69-.57-1.09-1.06-2.1-1.51-3-.13-2.41-.85-3-1.73-3.14a5,5,0,0,0-4.11-2.55C43.55,2.63,39,1,33.44.33A47.06,47.06,0,0,0,20.57.56C16,1.33,12.37,2.87,10,5A10.08,10.08,0,0,0,6.43,12.8,13.3,13.3,0,0,0,9,20.9a13.44,13.44,0,0,0-8.06,11C.26,37.4,2.69,41.73,8.36,45.08c4.75,2.82,11.25,4.64,17.54,6.4L27,51.8c6.18,1.76,14.65,4.17,14.65,7.5a2,2,0,0,1-.8,1.55c-2.36,2.07-8.52,2.68-13.11,2.08a14.4,14.4,0,0,1-7.6-2.9,5,5,0,0,0-2.58-3.93c-.17-1-.71-1.76-3.31-1.67-.95-.42-2-.87-3.12-1.41-4.84-2.31-5.89-.9-6.08-.5L3.51,51,2.14,48,2,48l1,3.1-3-.85,0,.12,3.1,1.24L4.56,53c-.43.62-.73,2.13,1.15,5.69.57,1.09,1.06,2.1,1.51,3,.13,2.41.85,3,1.73,3.14a5,5,0,0,0,4.11,2.55c3.34,2.58,7.85,4.22,13.45,4.88a50.25,50.25,0,0,0,5.75.33,42.53,42.53,0,0,0,7.12-.57c4.53-.76,8.2-2.3,10.6-4.44a10.05,10.05,0,0,0,3.54-7.79A13.3,13.3,0,0,0,51,51.72,13.41,13.41,0,0,0,59,40.77c.66-5.55-1.77-9.88-7.44-13.23C46.84,24.72,40.33,22.9,34,21.14l-1.12-.32c-6.18-1.76-14.66-4.17-14.66-7.51a2,2,0,0,1,.81-1.54c2.36-2.07,8.52-2.68,13.12-2.08a14.39,14.39,0,0,1,7.59,2.9,5,5,0,0,0,2.58,3.93c.17,1,.71,1.76,3.31,1.67.95.42,2,.87,3.12,1.41,4.84,2.31,5.89.9,6.08.5l1.57,1.52,1.37,3,.12,0-1-3.11,3,.86Z"/></g></g></svg>