<svg xmlns="http://www.w3.org/2000/svg" viewBox="0 0 24 24"><defs><style>.cls-1{fill:#001489;}</style></defs><title>soundcloud</title><g id="Layer_2" data-name="Layer 2"><g id="Layer_1-2" data-name="Layer 1"><path class="cls-1" d="M12,0A12,12,0,1,0,24,12,12,12,0,0,0,12,0ZM5.58,14.58a1.79,1.79,0,0,1,0-2.64ZM6.75,15a1.58,1.58,0,0,1-.58-.08V11.6a1.28,1.28,0,0,1,.58-.07Zm1.17,0H7.33V11.69l.18.11a2.63,2.63,0,0,1,.41-.9Zm1.16,0H8.5V10.29A2.56,2.56,0,0,1,9.08,10Zm1.17,0H9.67V9.83a1.63,1.63,0,0,1,.58,0Zm1.17,0h-.59V10l.23.11a2.54,2.54,0,0,1,.36-.5Zm5.88,0H12V9.1a2.86,2.86,0,0,1,1.61-.52,3.08,3.08,0,0,1,3,3A1.71,1.71,0,0,1,19,13.19,1.76,1.76,0,0,1,17.3,15Z"/></g></g></svg>