<svg xmlns="http://www.w3.org/2000/svg" viewBox="0 0 460.4 375.22"><defs><style>.cls-1{fill:#001489;}</style></defs><title>twitter</title><g id="Layer_2" data-name="Layer 2"><g id="Layer_1-2" data-name="Layer 1"><path class="cls-1" d="M139,293.69c-47.92-1.83-78.87-35.53-87.88-66a98.45,98.45,0,0,0,21.15,1.57A94.65,94.65,0,0,0,93,226.2c-.25-.56-.75-.53-1.16-.62a94.68,94.68,0,0,1-71.92-71.86,105,105,0,0,1-2.3-20.31c0-1.46.42-1.31,1.43-.77a93.35,93.35,0,0,0,29.18,9.92,104.81,104.81,0,0,0,12.19,1.21c-20.53-14.45-34-33.4-39.54-57.61S19,39.09,31.24,17.28c4.31,5.13,8.48,10,12.89,14.62a268.76,268.76,0,0,0,107.94,69.91,268.43,268.43,0,0,0,52.44,12.45c6.82.93,13.69,1.52,20.57,1.95,1.22.07,1.5-.11,1.23-1.46-5.77-29.54.25-56.39,19.23-79.86C260.38,16.54,279.65,5.08,303,1.38c32.57-5.17,60.62,4.26,84.05,27.43a2.45,2.45,0,0,0,2.57.78,191.35,191.35,0,0,0,56.93-21.7l1.6-.87a92.34,92.34,0,0,1-15.82,29.65,100.75,100.75,0,0,1-24.7,22.23A180.92,180.92,0,0,0,460.4,44.67a3.53,3.53,0,0,1-1,2.11,189.52,189.52,0,0,1-43.54,45.05,4.39,4.39,0,0,0-2,4.24,243.73,243.73,0,0,1-1.52,39.42A276.63,276.63,0,0,1,397,199c-14.39,38.93-36,73.29-65.67,102.4a252.23,252.23,0,0,1-115.78,65.19,283.28,283.28,0,0,1-66.6,8.65A267.56,267.56,0,0,1,23.65,346.65C15.89,342.78,8.35,338.5,1,333.88a4.4,4.4,0,0,1-1-.83C51.49,338,97.88,325.08,139,293.69Z"/></g></g></svg>