<svg xmlns="http://www.w3.org/2000/svg" viewBox="0 0 1056.16 1081.66"><defs><style>.cls-1{fill:#001489;}</style></defs><title>ourros</title><g id="Layer_2" data-name="Layer 2"><g id="Layer_1-2" data-name="Layer 1"><path class="cls-1" d="M1050.24,500.37c-13-103.24-54.73-181.18-105.69-247.24C864.63,149.53,770,125.06,731.94,115.35h0c-1.35,0-2.79-.07-4.28,0-1.09.06-6.73.74-14.57,1.84-1.27,4.2-2.42,12-5,15.84-5.42,8.06-16,14.79-16,14.79.46-2.4,2-13.22-.14-19.53-1.81-5.27-7.36-6.31-7.77-6.86-22.18,3.62-36.91.15-37.32,11.19s52.43,31.81,52.43,31.81S804.52,200.76,864.75,322c35.86,72.21,94.36,188.25,72,305.3C917.38,728.63,848.46,809,816.19,841.59c-64.61,65.17-172.35,112.74-291.25,112.74s-230.37-49.55-298.15-130-91.27-164.56-83.72-283.46,96-250.68,116.37-275,90.1-82.05,128.1-93.49c22.79-6.86,56.36,5.81,64.93,7.2,22.83,3.7,56.4,13.74,97.62,22.47,40.67,8.61,86.94,8.84,100.89,5.49s39.44-30,40.67-33.68c.74-2.21-24.42-9.87-41.52-22.65-11.36-8.49-17-22.94-17-26.12,0-6.19,57-12.72,82.38-15.3,3.15-3.38,6.78-10.65-12.28-16-25.67-7.13-66.32-52.09-83.31-65S492.35-12.19,401,5.89c-22.91,4.54-55.27,29.62-75.49,37.75-32.09,12.9-85,48.08-139.66,111.35C114.76,237.32,41.6,357.63,16,440-29.31,585.6,29.2,836,97.14,913.69s222.71,167.67,409.55,168,283.63-63.14,349.68-110,171.22-199.5,186.32-244.79S1060,578.39,1050.24,500.37ZM633.13,84.88c-7.4,1.54-20,2.13-39.34-3,.4-5.44,1.35-13.84,3.49-18.36,2.56-5.41,8.53-9.27,13.07-11.56C620.15,63.05,633.59,83.64,633.13,84.88ZM576,38.4c3.21,10.12-.86,25.48-4.3,35.45A87.9,87.9,0,0,1,537.4,43.5C543.71,39.18,560.49,38.18,576,38.4Z"/></g></g></svg>